<svg width="16" height="16" viewBox="0 0 16 16" fill="none" xmlns="http://www.w3.org/2000/svg">
<path d="M10.8225 13.8852C10.8332 13.8862 10.8168 13.8877 10.8005 13.8884L10.5351 13.8959L10.4829 13.6354C10.3653 13.0499 9.84677 12.6248 9.25026 12.6248C9.03455 12.6248 8.82419 12.6838 8.6242 12.7997L8.38773 12.9371L8.21919 12.7216C7.85789 12.2596 7.31704 11.9946 6.73469 11.9946C6.06649 11.9946 5.44168 12.356 5.10365 12.938L5.04799 13.0338C5.66179 13.2487 6.10579 13.8282 6.10579 14.5154H5.4769C5.4769 13.9943 5.05365 13.5701 4.53356 13.5701C4.01346 13.5701 3.59022 13.9943 3.59022 14.5154H2.96132C2.96132 13.6508 3.66034 12.9478 4.52161 12.9412C4.25118 12.7398 3.92699 12.6248 3.59022 12.6248C2.72329 12.6248 2.01798 13.3316 2.01798 14.2003V14.5154H1.70354C1.2935 14.5154 0.943831 14.7788 0.813965 15.1456H10.8225C11.1693 15.1456 11.4514 14.863 11.4514 14.5154C11.4514 14.1679 11.1693 13.8852 10.8225 13.8852Z" fill="#CBB487"/>
<path d="M3.59042 11.9946C4.00455 11.9946 4.40861 12.1124 4.75671 12.3314C5.22995 11.7277 5.96041 11.3644 6.73489 11.3644C7.0789 11.3644 7.4119 11.4337 7.71817 11.5642L10.0466 9.74983C10.14 9.67673 10.1938 9.56644 10.1938 9.44765C10.1938 9.34714 10.1529 9.24819 10.0822 9.1773L9.18852 8.28178L7.93073 8.91198L7.67823 8.65896L6.64276 9.69658L6.19813 9.25103L7.23361 8.21341L6.9811 7.96038L7.61 6.69998L6.71634 5.80447C6.56163 5.64944 6.27957 5.66646 6.14499 5.84008L2.44489 10.6075C2.16975 10.962 2.01819 11.4047 2.01819 11.8544C2.01819 12.0907 2.06347 12.322 2.1424 12.5413C2.52979 12.2013 3.03637 11.9946 3.59042 11.9946Z" fill="#CBB487"/>
<path d="M9.06399 7.6394L15.1328 1.55829C15.1916 1.49937 15.2249 1.41839 15.2249 1.33552C15.2249 0.958345 14.9184 0.651123 14.542 0.651123C14.4593 0.651123 14.3781 0.684524 14.3197 0.743447L8.25115 6.82487L7.74646 7.83634L8.05462 8.14513L9.06399 7.6394Z" fill="#CBB487"/>
</svg>
