<svg width="25" height="25" viewBox="0 0 25 25" fill="none" xmlns="http://www.w3.org/2000/svg">
<path d="M12.4791 0.251256L19.3467 4.0201L23.6181 6.32328L24.0787 6.57454V7.07705V8.54271V9.42211H23.1993H21.3987V20.4355H23.2412H24.1206V21.3149V24.0787V25H23.2412H0.879397H0V24.0787V21.3149V20.4355H0.879397H2.72194V9.42211H0.921273H0V8.54271V7.07705V6.57454L0.502513 6.32328L4.73199 4.0201L11.6415 0.251256L12.0603 0L12.4791 0.251256ZM4.48074 20.4355H8.79397V9.42211H4.48074V20.4355ZM10.5946 20.4355H13.526V9.42211H12.0603H10.5946V20.4355ZM2.72194 7.66332H3.60134H7.24456H12.0603H16.8342H20.5193H21.3987H22.3199V7.62144L18.5092 5.56951L12.0603 2.01005L5.61139 5.56951H5.56951L1.80067 7.62144V7.66332H2.72194ZM19.598 20.4355V9.42211H15.2848V20.4355H19.598ZM22.3199 22.1943H21.3987H13.526H10.5946H9.71524H3.60134H2.72194H1.75879V23.1993H22.3199V22.1943Z" fill="white"/>
</svg>
