<svg width="50" height="66" viewBox="0 0 50 66" fill="white" xmlns="http://www.w3.org/2000/svg">
<path d="M26.9158 38.9548V27.1656C29.6363 26.9847 34.526 26.167 37.8999 22.7776C42.6963 17.9592 42.3207 10.0594 42.3024 9.72546C42.2486 8.74606 41.4702 7.96397 40.4951 7.90996C40.1629 7.89136 32.2987 7.51417 27.5021 12.3324C26.9918 12.8451 26.5406 13.3929 26.1407 13.9624C25.438 11.1259 24.1174 7.95692 21.6489 5.47723C15.9197 -0.27796 6.49181 0.174537 6.09347 0.196861C5.11848 0.250873 4.33992 1.03296 4.28616 2.01236C4.26419 2.41277 3.81348 11.8834 9.54283 17.6387C13.7402 21.8551 19.9217 22.7395 23.0843 22.9023V38.9548C23.7187 38.8832 24.3583 38.8463 25.0001 38.8463C25.642 38.8463 26.2814 38.8833 26.9158 38.9548Z" />
<path d="M40.3896 50.4249C39.3593 50.4249 38.3447 50.5899 37.3796 50.91C36.5141 48.8796 35.1547 47.0679 33.4249 45.6714C31.0476 43.7521 28.0555 42.6951 25.0001 42.6951C21.9447 42.6951 18.9527 43.7521 16.5753 45.6714C14.8455 47.0679 13.4861 48.8796 12.6205 50.91C11.6554 50.5899 10.6407 50.4249 9.61051 50.4249C4.31131 50.4249 0 54.7557 0 60.0791V63.944C0 65.0068 0.857742 65.8684 1.91574 65.8684H48.0843C49.1423 65.8684 50 65.0068 50 63.944V60.0791C50.0001 54.7557 45.6889 50.4249 40.3896 50.4249Z" />
</svg>
