<svg width="50" height="51" viewBox="0 0 50 51" fill="white" xmlns="http://www.w3.org/2000/svg">
<path d="M19.2708 0.534791H3.64583C1.63542 0.534791 7.45058e-07 2.17762 7.45058e-07 4.19715V13.6146C7.45058e-07 15.6342 1.63542 17.277 3.64583 17.277H19.2708C21.2812 17.277 22.9167 15.6342 22.9167 13.6146V4.19715C22.9167 2.17762 21.2812 0.534791 19.2708 0.534791Z" />
<path d="M19.2708 21.4625H3.64583C1.63542 21.4625 0 23.1054 0 25.1249V47.0991C0 49.1186 1.63542 50.7614 3.64583 50.7614H19.2708C21.2812 50.7614 22.9167 49.1186 22.9167 47.0991V25.1249C22.9167 23.1054 21.2812 21.4625 19.2708 21.4625Z" />
<path d="M46.3542 34.0192H30.7292C28.7188 34.0192 27.0833 35.662 27.0833 37.6816V47.0991C27.0833 49.1186 28.7188 50.7614 30.7292 50.7614H46.3542C48.3646 50.7614 50 49.1186 50 47.0991V37.6816C50 35.662 48.3646 34.0192 46.3542 34.0192Z" />
<path d="M46.3542 0.53479H30.7292C28.7188 0.53479 27.0833 2.17762 27.0833 4.19715V26.1713C27.0833 28.1908 28.7188 29.8337 30.7292 29.8337H46.3542C48.3646 29.8337 50 28.1908 50 26.1713V4.19715C50 2.17762 48.3646 0.53479 46.3542 0.53479Z" />
</svg>
