<svg width="36" height="35" viewBox="0 0 36 35" fill="none" xmlns="http://www.w3.org/2000/svg">
<path d="M27.7091 17.4994C26.9027 17.4994 26.2509 18.1529 26.2509 18.9577V30.6249C26.2509 31.4284 25.5974 32.0832 24.7926 32.0832H4.37514C3.57002 32.0832 2.91685 31.4284 2.91685 30.6249V10.2074C2.91685 9.40393 3.57002 8.74915 4.37514 8.74915H16.0423C16.8487 8.74915 17.5006 8.09571 17.5006 7.29086C17.5006 6.48574 16.8487 5.8323 16.0423 5.8323H4.37514C1.96299 5.8323 0 7.79529 0 10.2074V30.6249C0 33.037 1.96299 35 4.37514 35H24.7926C27.2047 35 29.1677 33.037 29.1677 30.6249V18.9577C29.1677 18.1513 28.5156 17.4994 27.7091 17.4994Z" fill="#111111"/>
<path d="M13.6737 16.1709C13.5716 16.2729 13.503 16.4027 13.4739 16.5426L12.4429 21.6997C12.3948 21.9387 12.4707 22.1851 12.6426 22.3587C12.7812 22.4973 12.9679 22.5715 13.1591 22.5715C13.2055 22.5715 13.2539 22.5673 13.3019 22.5571L18.4574 21.5261C18.6002 21.4967 18.73 21.4284 18.8307 21.3261L30.3694 9.78739L25.2139 4.63223L13.6737 16.1709Z" fill="#111111"/>
<path d="M33.9335 1.06648C32.5118 -0.355494 30.1987 -0.355494 28.7781 1.06648L26.7598 3.08475L31.9153 8.24018L33.9335 6.22164C34.6219 5.53482 35.0011 4.61888 35.0011 3.64473C35.0011 2.67057 34.6219 1.75464 33.9335 1.06648Z" fill="#111111"/>
</svg>
