<svg width="27" height="28" viewBox="0 0 27 28" fill="none" xmlns="http://www.w3.org/2000/svg">
<path d="M18.3729 16.625H17.4227V14.63C18.2994 14.0679 19.0161 13.3195 19.5122 12.4484C20.0084 11.5772 20.2694 10.6087 20.2731 9.625V8.75H23.1235C24.1315 8.75 25.0982 8.38125 25.8109 7.72487C26.5237 7.0685 26.9241 6.17826 26.9241 5.25C26.9241 5.01794 26.824 4.79538 26.6458 4.63128C26.4676 4.46719 26.2259 4.375 25.9739 4.375H21.2233C21.2233 3.21468 20.7227 2.10188 19.8318 1.28141C18.9409 0.460936 17.7325 0 16.4726 0H10.7718C9.51183 0 8.30348 0.460936 7.41256 1.28141C6.52163 2.10188 6.02112 3.21468 6.02112 4.375H1.27045C1.01846 4.375 0.776785 4.46719 0.5986 4.63128C0.420416 4.79538 0.320313 5.01794 0.320312 5.25C0.320313 6.17826 0.720725 7.0685 1.43346 7.72487C2.1462 8.38125 3.11288 8.75 4.12085 8.75H6.97125V9.625C6.975 10.6087 7.236 11.5772 7.73215 12.4484C8.2283 13.3195 8.94502 14.0679 9.82165 14.63V16.625H8.87152C6.6036 16.625 4.42856 17.4547 2.8249 18.9315C1.22124 20.4084 0.320313 22.4114 0.320312 24.5V27.125C0.320312 27.3571 0.420416 27.5796 0.5986 27.7437C0.776785 27.9078 1.01846 28 1.27045 28H25.9739C26.2259 28 26.4676 27.9078 26.6458 27.7437C26.824 27.5796 26.9241 27.3571 26.9241 27.125V24.5C26.9241 22.4114 26.0231 20.4084 24.4195 18.9315C22.8158 17.4547 20.6408 16.625 18.3729 16.625ZM9.82165 21.875V18.375H10.6198L13.3181 19.2062C13.5154 19.2676 13.729 19.2676 13.9262 19.2062L16.6246 18.375H17.4227V21.875H9.82165ZM12.444 15.6363L12.7006 15.6888C13.3118 15.7704 13.9326 15.7704 14.5438 15.6888L14.8004 15.6363C15.0094 15.6363 15.2279 15.5663 15.4369 15.5138H15.5225V16.8875L13.6222 17.5L11.7219 16.9137V15.4962H11.8074C12.0165 15.5662 12.235 15.6013 12.444 15.6363ZM10.7718 1.75H16.4726C17.2286 1.75 17.9536 2.02656 18.4881 2.51884C19.0227 3.01113 19.323 3.67881 19.323 4.375H7.92138C7.92138 3.67881 8.22169 3.01113 8.75625 2.51884C9.2908 2.02656 10.0158 1.75 10.7718 1.75ZM4.12085 7C3.78761 6.99969 3.46032 6.91868 3.17182 6.7651C2.88331 6.61152 2.64373 6.39077 2.47712 6.125H24.7673C24.6006 6.39077 24.3611 6.61152 24.0726 6.7651C23.784 6.91868 23.4568 6.99969 23.1235 7H4.12085ZM8.87152 9.625V8.75H18.3729V9.625C18.3729 10.7853 17.8723 11.8981 16.9814 12.7186C16.0905 13.5391 14.8821 14 13.6222 14C12.3622 14 11.1539 13.5391 10.263 12.7186C9.37203 11.8981 8.87152 10.7853 8.87152 9.625ZM2.22058 24.5C2.22245 23.0284 2.7996 21.6066 3.84643 20.4947C4.89326 19.3828 6.33979 18.6552 7.92138 18.445V22.0325C7.36693 22.213 6.88669 22.5471 6.54648 22.9888C6.20628 23.4306 6.02277 23.9584 6.02112 24.5V26.25H2.22058V24.5ZM7.92138 26.25V24.5C7.92138 24.2679 8.02149 24.0454 8.19967 23.8813C8.37786 23.7172 8.61953 23.625 8.87152 23.625H18.3729C18.6248 23.625 18.8665 23.7172 19.0447 23.8813C19.2229 24.0454 19.323 24.2679 19.323 24.5V26.25H7.92138ZM25.0238 26.25H21.2233V24.5C21.2216 23.9584 21.0381 23.4306 20.6979 22.9888C20.3577 22.5471 19.8774 22.213 19.323 22.0325V18.445C20.9046 18.6552 22.3511 19.3828 23.3979 20.4947C24.4448 21.6066 25.0219 23.0284 25.0238 24.5V26.25Z" fill="white"/>
</svg>
