<svg width="29" height="27" viewBox="0 0 29 27" fill="none" xmlns="http://www.w3.org/2000/svg">
<path d="M26.9717 6.53223C21.8456 6.53223 16.9845 8.09997 12.8747 11.0613C10.3117 9.36287 7.26247 8.36126 3.99232 8.27416H0.457031V21.7742C0.457031 24.6484 2.84335 27 5.75997 27H23.4364C26.3531 27 28.7394 24.6484 28.7394 21.7742V10.0161V8.27416V6.53223H26.9717ZM15.6588 13.4129C18.5312 11.5403 21.7572 10.408 25.2041 10.1032V13.6742C22.5968 14.0226 20.1663 14.9371 17.9567 16.3742C17.3381 15.2855 16.5426 14.2838 15.6588 13.4129ZM16.7194 23.5161H13.1399C12.5654 18.9871 8.72078 15.4596 3.99232 15.2419V11.758C10.6652 11.9758 16.1007 17.0709 16.7194 23.5161ZM3.99232 21.7742V18.7693C6.73218 18.9435 9.03012 20.9467 9.6046 23.5161H5.75997C4.78777 23.5161 3.99232 22.7322 3.99232 21.7742ZM23.4364 23.5161H20.2989C20.2105 22.1661 19.9011 20.8596 19.5034 19.5967C21.2269 18.3338 23.1713 17.5064 25.2483 17.158V21.7742C25.2041 22.7322 24.4086 23.5161 23.4364 23.5161Z" fill="white"/>
<path d="M11.505 5.22581C12.9694 5.22581 14.1565 4.05597 14.1565 2.6129C14.1565 1.16984 12.9694 0 11.505 0C10.0406 0 8.85352 1.16984 8.85352 2.6129C8.85352 4.05597 10.0406 5.22581 11.505 5.22581Z" fill="white"/>
</svg>
