<svg width="50" height="49" viewBox="0 0 50 49" fill="white" xmlns="http://www.w3.org/2000/svg">
<path d="M45.6004 20.3738C45.8403 20.5155 46.0727 20.657 46.3002 20.7983V16.0787C48.2166 15.4587 49.6073 13.651 49.6073 11.5225V4.87823C49.6073 2.23928 47.47 0.0922852 44.843 0.0922852C42.2159 0.0922852 40.0786 2.23928 40.0786 4.87823V11.5226C40.0786 13.6511 41.4694 15.4588 43.3857 16.0788V19.1706C44.1941 19.5744 44.9333 19.9802 45.6004 20.3738Z" />
<path d="M6.61436 19.1705V16.0787C8.53076 15.4587 9.92148 13.651 9.92148 11.5225V4.87823C9.92148 2.23928 7.78418 0.0922852 5.15713 0.0922852C2.53008 0.0922852 0.392676 2.23918 0.392676 4.87823V11.5226C0.392676 13.6511 1.7835 15.4588 3.6998 16.0788V20.7984C3.92734 20.6571 4.15967 20.5155 4.39961 20.3739C5.0667 19.9802 5.80586 19.5744 6.61436 19.1705Z" />
<path d="M23.5428 15.0005V12.3312C23.5428 11.5228 24.1952 10.8674 25 10.8674C25.8048 10.8674 26.4572 11.5228 26.4572 12.3312V15.0005C28.8308 15.077 31.0379 15.3355 33.0716 15.7204V10.152C33.3075 10.2732 33.5634 10.3325 33.8178 10.3325C34.3185 10.3325 34.8129 10.104 35.1364 9.67076C35.6821 8.93992 35.5347 7.90311 34.8071 7.35494L25.988 0.710602C25.4025 0.269452 24.5974 0.269452 24.0119 0.710602L15.1928 7.35494C14.4652 7.90311 14.3178 8.93992 14.8634 9.67076C15.3513 10.3243 16.2278 10.5102 16.9283 10.1505V15.7204C18.9621 15.3356 21.1692 15.077 23.5428 15.0005Z" />
<path d="M25 28.64C30.4392 25.4202 36.5405 23.2663 43.0005 22.2655C39.0853 20.1575 33.0229 17.903 25 17.903C17.2044 17.903 11.2085 20.0035 7.01016 22.2671C13.4662 23.2686 19.5639 25.422 25 28.64Z" />
<path d="M50 24.5679C41.9485 24.7964 34.3074 26.9122 27.823 30.4492C31.0206 32.6665 33.8416 35.2286 36.2247 38.0861C38.8228 41.2015 40.8416 44.5988 42.2389 48.1966H48.5428C49.3476 48.1966 50 47.5412 50 46.7328V24.5679Z" />
<path d="M0 31.628C4.91445 31.9084 9.55508 33.607 13.4996 36.5839C17.3991 39.5269 20.3741 43.6197 21.9636 48.1966H39.0891C33.195 34.5504 17.5729 25.0666 0 24.5679V31.628Z" />
<path d="M18.8527 48.1967C15.7589 40.4939 8.36504 35.1253 0 34.5627V46.7328C0 47.5412 0.652441 48.1966 1.45723 48.1966L18.8527 48.1967Z" />
</svg>
