<svg width="50" height="59" viewBox="0 0 50 59" fill="white" xmlns="http://www.w3.org/2000/svg">
<path d="M33.9693 45.5501H16.0281C14.0495 45.5501 12.4399 47.1669 12.4399 49.1545V58.0459H37.5575V49.1545C37.5575 47.1669 35.9479 45.5501 33.9693 45.5501Z" />
<path d="M19.0069 35.3489C18.7207 35.0619 18.3425 34.8902 17.9417 34.8608V42.1849H32.0561V34.8608C31.6553 34.8902 31.2767 35.0619 30.9896 35.3502C29.3897 36.9575 27.2623 37.8426 24.9989 37.8426C22.7355 37.8426 20.6081 36.9575 19.0069 35.3489Z" />
<path d="M35.4061 35.185V42.3361C38.5446 43.0025 40.9075 45.806 40.9075 49.1545V58.0459H46.5283C47.4526 58.0459 48.2033 57.2923 48.2033 56.3633V50.9567C48.2033 43.1909 42.7002 36.6906 35.4061 35.185Z" />
<path d="M14.5917 35.185C7.29758 36.6906 1.79452 43.1909 1.79452 50.9567V56.3633C1.79452 57.2923 2.54478 58.0459 3.46951 58.0459H9.08992V49.1545C9.08992 45.806 11.4528 43.0025 14.5917 42.3361V35.185Z" />
<path d="M48.325 9.26616H39.2264C39.0999 4.4734 35.1819 0.613525 30.3811 0.613525H19.6167C14.8154 0.613525 10.898 4.4734 10.771 9.26616H1.675C0.75026 9.26616 0 10.0211 0 10.9501C0 14.0011 2.46233 16.4746 5.49958 16.4746H44.5004C47.5377 16.4746 50 14.0011 50 10.9501C50 10.0211 49.2493 9.26616 48.325 9.26616Z" />
<path d="M37.4384 20.3187V19.8397H12.559V20.3187C12.559 27.2309 18.1288 32.8145 24.9989 32.8145C31.8799 32.8145 37.4384 27.2199 37.4384 20.3187Z" />
</svg>
