<svg width="15" height="20" viewBox="0 0 15 20" fill="none" xmlns="http://www.w3.org/2000/svg">
<path d="M7.50002 11.7726C7.80695 11.7726 8.07474 11.5366 8.07474 11.2297V9.8485C8.07474 8.92977 8.80236 8.20071 9.67273 7.90654C10.2607 7.70782 10.8707 7.38928 11.37 6.88019C12.8089 5.41315 12.6962 3.00792 12.6907 2.90624C12.6746 2.60804 12.4411 2.36992 12.1485 2.35348C12.0489 2.34781 9.6896 2.23297 8.25065 3.69998C8.07597 3.87806 7.743 3.81472 7.6622 3.57872C7.42762 2.89351 7.06231 2.19149 6.49468 1.61279C4.77591 -0.139488 1.94754 -0.00171674 1.82804 0.00508001C1.53554 0.021525 1.30198 0.259646 1.28585 0.557844C1.27926 0.679756 1.14404 3.56326 2.86285 5.31557C3.41467 5.87816 4.08081 6.24591 4.73494 6.48572C5.9142 6.91805 6.9253 7.90291 6.9253 9.15893V11.2297C6.9253 11.5366 7.19311 11.7726 7.50002 11.7726Z" fill="white"/>
<path d="M12.1169 15.2979C11.5988 15.2979 11.068 15.0664 10.7677 14.6443C10.5576 14.3489 10.3088 14.0812 10.0275 13.8507C9.31427 13.2663 8.41666 12.9445 7.50002 12.9445C6.58341 12.9445 5.68581 13.2663 4.97258 13.8507C4.69119 14.0812 4.44247 14.3489 4.23233 14.6443C3.93199 15.0664 3.40122 15.2979 2.88315 15.2979C1.29339 15.2979 0 16.6165 0 18.2373V19.4141C0 19.7377 0.257323 20 0.574723 20H14.4253C14.7427 20 15 19.7377 15 19.4141V18.2373C15 16.6165 13.7067 15.2979 12.1169 15.2979Z" fill="white"/>
</svg>
