<svg width="43" height="31" viewBox="0 0 43 31" fill="white" xmlns="http://www.w3.org/2000/svg">
<path d="M2.375 5.0377H40.625C41.1886 5.0377 41.7291 4.8128 42.1276 4.41248C42.5261 4.01215 42.75 3.4692 42.75 2.90306C42.75 2.33692 42.5261 1.79397 42.1276 1.39365C41.7291 0.993331 41.1886 0.768433 40.625 0.768433H2.375C1.81142 0.768433 1.27091 0.993331 0.872398 1.39365C0.473883 1.79397 0.25 2.33692 0.25 2.90306C0.25 3.4692 0.473883 4.01215 0.872398 4.41248C1.27091 4.8128 1.81142 5.0377 2.375 5.0377ZM2.375 13.5762H32.125C32.6886 13.5762 33.2291 13.3513 33.6276 12.951C34.0261 12.5507 34.25 12.0077 34.25 11.4416C34.25 10.8755 34.0261 10.3325 33.6276 9.93218C33.2291 9.53186 32.6886 9.30696 32.125 9.30696H2.375C1.81142 9.30696 1.27091 9.53186 0.872398 9.93218C0.473883 10.3325 0.25 10.8755 0.25 11.4416C0.25 12.0077 0.473883 12.5507 0.872398 12.951C1.27091 13.3513 1.81142 13.5762 2.375 13.5762ZM40.625 17.8455H2.375C1.81142 17.8455 1.27091 18.0704 0.872398 18.4707C0.473883 18.871 0.25 19.414 0.25 19.9801C0.25 20.5463 0.473883 21.0892 0.872398 21.4895C1.27091 21.8898 1.81142 22.1147 2.375 22.1147H40.625C41.1886 22.1147 41.7291 21.8898 42.1276 21.4895C42.5261 21.0892 42.75 20.5463 42.75 19.9801C42.75 19.414 42.5261 18.871 42.1276 18.4707C41.7291 18.0704 41.1886 17.8455 40.625 17.8455ZM32.125 26.384H2.375C1.81142 26.384 1.27091 26.6089 0.872398 27.0092C0.473883 27.4095 0.25 27.9525 0.25 28.5186C0.25 29.0848 0.473883 29.6277 0.872398 30.0281C1.27091 30.4284 1.81142 30.6533 2.375 30.6533H32.125C32.6886 30.6533 33.2291 30.4284 33.6276 30.0281C34.0261 29.6277 34.25 29.0848 34.25 28.5186C34.25 27.9525 34.0261 27.4095 33.6276 27.0092C33.2291 26.6089 32.6886 26.384 32.125 26.384Z" />
</svg>
