<svg width="20" height="20" viewBox="0 0 20 20" fill="none" xmlns="http://www.w3.org/2000/svg">
<path d="M19.7228 11.3962C19.6416 11.2778 19.5182 11.1974 19.3796 11.1729C19.2411 11.1484 19.0987 11.1817 18.9839 11.2655C18.2848 11.7777 17.4646 12.0854 16.61 12.156C16.626 11.165 16.4056 10.1852 15.9683 9.30282L15.9674 9.30128C16.7652 8.93856 17.4693 8.38752 18.0231 7.69253C18.0677 7.63716 18.1013 7.57324 18.122 7.50443C18.1426 7.43562 18.1499 7.36328 18.1434 7.29156C18.1369 7.21984 18.1167 7.15015 18.0841 7.08649C18.0514 7.02283 18.0069 6.96646 17.9531 6.9206C17.8993 6.87474 17.8372 6.8403 17.7705 6.81926C17.7037 6.79822 17.6336 6.791 17.5642 6.79799C17.4947 6.80499 17.4273 6.82607 17.3657 6.86004C17.3042 6.894 17.2498 6.94017 17.2055 6.99591C16.7095 7.61748 16.0668 8.09677 15.3393 8.38766C15.0029 8.01015 14.6104 7.69033 14.1765 7.44024C13.8441 7.24796 13.4943 7.08966 13.132 6.96762H13.1311C12.1845 6.66189 11.1965 6.51513 10.2048 6.53294C7.8041 6.53294 6.02973 7.21641 4.96497 8.51042L4.96459 8.51093C4.9385 8.49601 4.91124 8.48338 4.88311 8.47319C4.06618 8.19305 3.34223 7.68103 2.79418 6.9958C2.74992 6.9402 2.69547 6.89416 2.63394 6.86032C2.57242 6.82647 2.50503 6.80549 2.43564 6.79857C2.36625 6.79165 2.29621 6.79893 2.22955 6.81999C2.16289 6.84106 2.10091 6.87549 2.04716 6.92132C1.99341 6.96714 1.94894 7.02347 1.91631 7.08706C1.88368 7.15065 1.86352 7.22027 1.85699 7.29192C1.85046 7.36356 1.85769 7.43584 1.87826 7.50459C1.89884 7.57335 1.93235 7.63725 1.97688 7.69262C2.60961 8.48569 3.43596 9.09002 4.3706 9.4432L4.36866 9.44669C3.97857 10.2987 3.78353 11.2319 3.79862 12.1741C2.80195 12.1779 1.82901 11.8602 1.01576 11.2654C0.900974 11.182 0.758819 11.1491 0.620491 11.1737C0.482163 11.1984 0.358961 11.2787 0.277919 11.397C0.196876 11.5153 0.164612 11.662 0.188207 11.8048C0.211802 11.9477 0.289328 12.075 0.403774 12.1589C1.39467 12.8822 2.57838 13.2707 3.79199 13.2709C3.81423 13.2709 3.83639 13.2705 3.85859 13.2703C3.95737 14.1226 4.18535 14.9536 4.53417 15.7329C4.54966 15.7678 4.56515 15.8028 4.58159 15.8378L4.58289 15.8403C4.53456 15.8438 4.48692 15.8541 4.44133 15.871C4.07366 16.0142 3.68052 16.0743 3.28844 16.0473C2.89635 16.0203 2.51442 15.9069 2.16842 15.7146C2.10709 15.6806 2.03988 15.6594 1.97063 15.6522C1.90137 15.6451 1.83142 15.6521 1.76478 15.6728C1.69814 15.6935 1.6361 15.7276 1.58222 15.7731C1.52833 15.8186 1.48365 15.8745 1.45073 15.9378C1.41781 16.0012 1.39729 16.0705 1.39034 16.142C1.38339 16.2135 1.39015 16.2857 1.41023 16.3545C1.43032 16.4233 1.46333 16.4873 1.50739 16.543C1.55145 16.5986 1.60569 16.6447 1.66701 16.6787C2.17194 16.9579 2.73098 17.1169 3.30317 17.1441C3.35998 17.1467 3.41663 17.148 3.47312 17.1479C3.9313 17.148 4.38571 17.0624 4.81437 16.8954C4.91077 16.8579 4.99443 16.7921 5.055 16.7061C5.05916 16.713 5.06367 16.7197 5.0685 16.7261C6.2369 18.5667 8.1042 19.7608 10.2048 19.7608C11.2024 19.7412 12.1804 19.4712 13.0544 18.9742C13.9283 18.4771 14.6719 17.768 15.221 16.908L15.2213 16.9074C15.6394 17.0661 16.0813 17.1476 16.5268 17.148C16.5833 17.148 16.64 17.1467 16.6968 17.1442C17.2689 17.1169 17.8279 16.9579 18.3328 16.6788C18.3941 16.6448 18.4484 16.5987 18.4925 16.5431C18.5365 16.4875 18.5696 16.4235 18.5897 16.3547C18.6098 16.2859 18.6166 16.2137 18.6096 16.1422C18.6027 16.0707 18.5822 16.0013 18.5493 15.938C18.5164 15.8746 18.4717 15.8186 18.4178 15.7731C18.3639 15.7276 18.3019 15.6936 18.2353 15.6728C18.1686 15.6521 18.0987 15.6451 18.0294 15.6522C17.9601 15.6594 17.8929 15.6805 17.8316 15.7145C17.467 15.9161 17.0633 16.031 16.6501 16.0508C16.3551 16.0639 16.06 16.0275 15.7763 15.9431C16.1824 15.1014 16.4445 14.1936 16.551 13.2598L16.5512 13.2575C17.6461 13.1943 18.7015 12.8135 19.5962 12.1589C19.7109 12.0751 19.7887 11.9477 19.8125 11.8046C19.8362 11.6616 19.804 11.5147 19.7228 11.3962ZM10.2048 18.6666C8.40331 18.6666 6.80709 17.5895 5.83712 15.9417C5.64422 15.6124 5.47874 15.2667 5.34247 14.9085C5.01934 14.0556 4.8548 13.1474 4.85747 12.2316C4.85747 9.17691 6.65702 7.62809 10.2048 7.62809C10.8985 7.61969 11.591 7.69311 12.2686 7.84693C12.6546 7.93682 13.0298 8.07018 13.3876 8.24462C14.826 8.95907 15.5511 10.292 15.5511 12.2316C15.5511 15.7798 13.1524 18.6666 10.2048 18.6666Z" fill="#4D6260" stroke="#4D6259" stroke-width="0.25"/>
<path d="M6.35215 6.26704C6.52421 6.2671 6.69481 6.23459 6.8555 6.17112C7.88851 5.79454 8.97879 5.61312 10.0741 5.63552C11.1695 5.61312 12.2597 5.79455 13.2928 6.17113C13.5027 6.25307 13.7286 6.28215 13.9516 6.25593C14.1747 6.22971 14.3884 6.14897 14.5752 6.02039C14.7619 5.89182 14.9163 5.71912 15.0254 5.51664C15.1345 5.31415 15.1953 5.08772 15.2027 4.85613C15.2076 4.7001 15.1883 4.54425 15.1455 4.39449C14.9043 3.52166 14.5174 2.69895 14.0024 1.96334C13.535 1.29172 12.9352 0.72982 12.2425 0.314608C12.169 0.271958 12.0867 0.248004 12.0025 0.244731C11.9183 0.241458 11.8345 0.258961 11.7581 0.295789C11.6818 0.332616 11.615 0.387707 11.5634 0.456493C11.5118 0.525278 11.4768 0.605776 11.4613 0.691311C11.3103 1.52568 10.7285 2.13221 10.079 2.13221C9.42754 2.13221 8.84576 1.52468 8.69573 0.687334C8.68036 0.601837 8.64548 0.521349 8.59398 0.45254C8.54247 0.38373 8.47582 0.32858 8.39956 0.291657C8.32329 0.254734 8.2396 0.237102 8.15541 0.24022C8.07123 0.243339 7.98897 0.26712 7.91547 0.309591C6.57772 1.08302 5.51678 2.57188 5.00275 4.39449C4.92787 4.65603 4.92554 4.934 4.99604 5.19683C5.06654 5.45966 5.20704 5.69682 5.40157 5.88135C5.65995 6.1291 5.9995 6.26687 6.35215 6.26704ZM6.02108 4.70023C6.32771 3.51053 6.97801 2.44541 7.88547 1.64658C8.06625 2.09902 8.36904 2.48839 8.75787 2.76842C9.1467 3.04846 9.60524 3.2074 10.079 3.22637C10.553 3.21273 11.0129 3.05681 11.4025 2.77766C11.7921 2.49852 12.0944 2.10825 12.2725 1.65458C13.1752 2.45274 13.8222 3.51467 14.1281 4.70023C14.1483 4.76636 14.1495 4.83709 14.1317 4.90393C14.1138 4.97076 14.0776 5.03084 14.0275 5.07695C13.9807 5.12347 13.9219 5.15494 13.8581 5.16754C13.7943 5.18013 13.7284 5.17331 13.6683 5.14789C12.5154 4.72413 11.2978 4.51866 10.0741 4.54136C8.85046 4.51875 7.63289 4.72422 6.47991 5.14789C6.41981 5.17314 6.35391 5.17988 6.29018 5.16729C6.22645 5.1547 6.16761 5.12333 6.12079 5.07695C6.07063 5.03086 6.03451 4.97073 6.01681 4.90386C5.99911 4.83699 6.00059 4.76625 6.02108 4.70024L6.02108 4.70023Z" fill="#4D6259" stroke="#4D6259" stroke-width="0.25"/>
</svg>
