<svg width="50" height="52" viewBox="0 0 50 52" fill="white" xmlns="http://www.w3.org/2000/svg">
<path d="M26.7382 46.593C26.6776 46.5407 26.6175 46.4878 26.5578 46.4342V46.6266C26.6181 46.6154 26.6782 46.6043 26.7382 46.593Z" />
<path d="M49.2054 0.773929C49.1637 0.774616 44.9629 0.848791 39.2696 1.61301C38.6152 1.70082 38.3573 2.56531 38.8748 2.99564C41.2706 4.98816 38.1905 9.79873 35.2897 7.14247C35.1552 7.02283 34.9838 6.95344 34.8043 6.94599C34.6248 6.93853 34.4483 6.99348 34.3044 7.10156C33.2314 7.8849 31.6406 8.04699 30.4325 7.49529C30.2468 7.41044 30.0354 7.40194 29.8435 7.47161C29.6516 7.54128 29.4944 7.68359 29.4056 7.86813C28.1348 10.5089 23.6701 9.40745 24.2527 6.20155C24.2743 6.06695 24.261 5.92905 24.2142 5.80108C24.1674 5.67312 24.0886 5.5594 23.9854 5.47086C23.8822 5.38232 23.7581 5.32194 23.625 5.29552C23.4918 5.26909 23.3541 5.27752 23.2252 5.31998C19.4704 6.64454 16.2123 8.30484 13.5429 10.256C13.4565 10.3186 13.3837 10.398 13.3287 10.4896C13.2737 10.5812 13.2377 10.683 13.2229 10.789C13.2082 10.8949 13.2149 11.0027 13.2427 11.106C13.2706 11.2092 13.3189 11.3057 13.3849 11.3897C14.9119 13.298 13.3585 16.4968 10.9407 16.472C10.7322 16.4715 10.532 16.5539 10.3838 16.7011C10.2356 16.8484 10.1513 17.0485 10.1495 17.2579C10.1519 19.218 8.16539 20.7726 6.28696 20.308C6.10023 20.2617 5.90305 20.2862 5.73318 20.3768C5.56331 20.4675 5.43268 20.6178 5.3663 20.7992C2.66909 28.1684 4.49937 36.2475 6.67511 42.0744L0.448606 48.3283C-0.917438 49.6888 1.13075 52.0788 2.65873 50.5484L8.92929 44.2494C11.9286 45.1794 18.449 46.9022 21.8693 47.0108V43.9439C21.8611 43.087 22.4163 42.4191 23.0012 41.8315C23.6709 41.1588 22.6339 40.2139 22.0245 40.8387L21.1827 41.6843C19.1199 43.7955 15.6526 40.5776 17.8677 38.3542L19.5254 36.6892V33.7399C19.5239 33.3023 19.6445 32.873 19.8736 32.5007C20.1026 32.1285 20.4309 31.8281 20.8213 31.6337C21.7858 31.1494 22.9548 30.6968 23.4524 29.6443C23.7135 29.1287 23.8254 28.5497 23.7751 27.9733C23.7249 27.3969 23.5146 26.8463 23.1681 26.3841C22.6079 25.6301 22.6505 24.146 22.6505 23.2263C22.6504 22.7435 22.5318 22.2681 22.3049 21.8423C22.0781 21.4166 21.7502 21.0536 21.3503 20.7857C18.7038 19.028 21.4565 15.1834 23.9511 16.8674C24.1306 16.9877 24.3397 17.056 24.5553 17.0648C24.7709 17.0737 24.9848 17.0227 25.1735 16.9175C25.3622 16.8123 25.5185 16.657 25.6251 16.4685C25.7317 16.28 25.7846 16.0657 25.778 15.849C25.7773 15.8245 25.7767 15.8002 25.7765 15.7762C25.7405 12.5794 30.4647 12.6124 30.4647 15.6868C30.4647 17.1193 32.0275 18.8265 34.3716 18.8265C36.7158 18.8265 38.2785 16.8777 38.2785 15.6868C38.2785 12.4823 42.9668 12.7015 42.9668 15.6868C42.9668 15.6978 42.9668 15.7089 42.9668 15.7199C42.9649 15.9314 43.0172 16.1399 43.1185 16.3254C43.2199 16.5108 43.367 16.667 43.5457 16.779C43.7244 16.8909 43.9288 16.9549 44.1392 16.9648C44.3496 16.9746 44.5589 16.93 44.7473 16.8352C45.996 16.2171 47.4939 16.3922 48.1822 17.7605C49.2184 12.3756 49.7528 6.80947 49.9984 1.59603C50.0021 1.48923 49.9843 1.38278 49.946 1.28305C49.9078 1.18333 49.8499 1.09237 49.7759 1.01562C49.7019 0.938874 49.6132 0.877914 49.5152 0.836385C49.4171 0.794857 49.3118 0.773615 49.2054 0.773929Z" />
<path d="M49.7702 39.4643L47.655 37.3395V33.7399C47.6549 33.5942 47.6145 33.4513 47.5383 33.3273C47.462 33.2033 47.3528 33.1031 47.223 33.0379L44.4025 31.6207C44.0876 29.9849 43.2076 28.5134 41.9179 27.4659L44.2169 25.7338C44.3139 25.6607 44.3927 25.5659 44.447 25.4569C44.5012 25.3479 44.5294 25.2277 44.5294 25.1058V20.8164L46.5257 19.4795C47.3149 18.9504 46.542 17.5687 45.6588 18.1734L43.3147 19.7433C43.2077 19.8149 43.1199 19.912 43.0592 20.026C42.9985 20.1399 42.9667 20.2671 42.9667 20.3963V24.7134L40.5025 26.5699C40.2627 26.456 40.0166 26.3558 39.7654 26.27L39.2759 24.262C38.981 23.0449 38.2473 21.9808 37.2165 21.2756C39.2862 19.9196 41.4039 18.457 41.4039 15.6868C41.4039 14.7155 39.8412 14.63 39.8412 15.6868C39.8412 18.4242 37.3467 19.2934 35.5051 20.5253C34.7588 20.356 33.9843 20.356 33.238 20.5253C31.4309 19.3164 28.9019 18.3449 28.9019 15.6868C28.9019 14.7155 27.3391 14.6299 27.3391 15.6868C27.3391 18.5571 29.3654 19.8772 31.5247 21.2768C30.4949 21.982 29.7618 23.0456 29.4672 24.262L28.9777 26.2701C28.7265 26.3559 28.4804 26.4561 28.2405 26.57L25.7764 24.7134V20.3963C25.7764 20.2671 25.7446 20.1399 25.6839 20.026C25.6232 19.9121 25.5355 19.8149 25.4285 19.7433L23.0843 18.1734C22.2202 17.5824 21.4044 18.9467 22.2175 19.4795L24.2136 20.8164V25.1058C24.2136 25.2277 24.2419 25.3479 24.2961 25.4569C24.3504 25.5659 24.4291 25.6607 24.5262 25.7338L26.8257 27.4662C25.536 28.5136 24.6561 29.985 24.3411 31.6207L21.52 33.0376C21.3902 33.1029 21.281 33.2031 21.2047 33.3271C21.1284 33.4512 21.0881 33.5941 21.0881 33.7399V37.3395L18.9728 39.4643C18.3143 40.113 19.2969 41.355 20.0779 40.5743L22.422 38.2196C22.4946 38.1467 22.5521 38.0602 22.5914 37.9649C22.6307 37.8697 22.6509 37.7676 22.6509 37.6645V34.225L24.2136 33.4881C25.3369 31.6481 27.4996 30.6003 30.4646 30.6003H38.2784C41.2435 30.6003 43.4067 31.6481 44.5294 33.4881V33.4401L46.0922 34.225V37.6645C46.0922 37.7676 46.1124 37.8697 46.1517 37.9649C46.1909 38.0602 46.2485 38.1467 46.321 38.2196L48.6652 40.5743C49.3622 41.2867 50.4865 40.1715 49.7702 39.4643Z" />
<path d="M30.4646 32.1701V41.2034C30.4646 43.5843 31.443 45.9938 33.058 47.7814C33.2338 47.8043 33.4116 47.8217 33.5902 47.8354V32.1701H30.4646Z" />
<path d="M38.2784 32.1701H35.1529V47.8354C35.3315 47.8217 35.509 47.8043 35.6849 47.7814C37.3 45.9938 38.2784 43.5843 38.2784 41.2034V32.1701Z" />
<path d="M28.9019 41.2034V32.3109C26.6945 32.7252 25.123 34.0259 24.2136 35.794V37.6645C24.2121 39.1294 24.5264 40.5771 25.1352 41.9082L23.6611 43.3889C23.5885 43.4618 23.531 43.5483 23.4917 43.6435C23.4524 43.7388 23.4322 43.8408 23.4322 43.9439V47.5434L21.317 49.6682C20.664 50.3105 21.6363 51.5634 22.422 50.7783L24.7662 48.4235C24.8387 48.3506 24.8963 48.2641 24.9355 48.1689C24.9748 48.0736 24.995 47.9716 24.995 47.8685V44.269L25.9287 43.331C27.08 45.0563 28.7253 46.3901 30.6472 47.1561C29.5398 45.365 28.9019 43.2753 28.9019 41.2034Z" />
<path d="M47.4261 49.6682L45.3108 47.5434V43.9439C45.3108 43.8408 45.2906 43.7388 45.2514 43.6435C45.2121 43.5483 45.1545 43.4618 45.082 43.3889L43.6079 41.9082C44.2166 40.5771 44.531 39.1294 44.5294 37.6645V35.7937C43.6201 34.0259 42.0486 32.7252 39.8412 32.3106V41.2031C39.8412 43.275 39.2033 45.3647 38.0959 47.1558C40.0178 46.3898 41.6631 45.056 42.8143 43.3307L43.7481 44.2687V47.8685C43.7481 47.9716 43.7683 48.0736 43.8075 48.1689C43.8468 48.2641 43.9044 48.3506 43.9769 48.4235L46.321 50.7783C47.018 51.4905 48.1423 50.3754 47.4261 49.6682Z" />
</svg>
