<svg width="19" height="19" viewBox="0 0 19 19" fill="none" xmlns="http://www.w3.org/2000/svg">
<path fill-rule="evenodd" clip-rule="evenodd" d="M4.36159 16.4611C4.08492 16.7269 3.63987 16.7215 3.36671 16.4482L2.05215 15.1329C1.77936 14.86 1.77373 14.4144 2.03942 14.1379L2.55913 13.5969C2.82489 13.3202 2.92072 12.8072 2.77495 12.4553L2.40497 11.5621C2.25841 11.2082 1.82857 10.9151 1.44514 10.9075L0.695111 10.8924C0.311577 10.8847 0.000580918 10.5662 0.000480963 10.1798L2.40393e-08 8.32023C-9.98275e-05 7.93435 0.310876 7.6153 0.694354 7.6076L1.44448 7.59256C1.82806 7.58486 2.25865 7.2898 2.40444 6.93781L2.7745 6.04442C2.92109 5.69051 2.82439 5.17925 2.55867 4.90265L2.03889 4.36159C1.7731 4.08492 1.77852 3.63987 2.05182 3.36671L3.36706 2.05215C3.63999 1.77936 4.08557 1.77373 4.36214 2.03942L4.90313 2.55913C5.17977 2.82489 5.6928 2.92072 6.04472 2.77495L6.93793 2.40497C7.29177 2.25841 7.58485 1.82857 7.59254 1.44514L7.60759 0.695111C7.61528 0.311577 7.93381 0.000580918 8.32022 0.000480963L10.1798 2.40393e-08C10.5656 -9.98275e-05 10.8847 0.310876 10.8924 0.694354L10.9074 1.44448C10.9151 1.82806 11.2102 2.25865 11.5622 2.40444L12.4556 2.7745C12.8095 2.92109 13.3207 2.82439 13.5973 2.55867L14.1384 2.03889C14.4151 1.7731 14.8601 1.77852 15.1333 2.05182L16.4479 3.36706C16.7206 3.63999 16.7263 4.08557 16.4606 4.36214L15.9409 4.90313C15.6751 5.17977 15.5793 5.6928 15.725 6.04472L16.095 6.93793C16.2416 7.29177 16.6714 7.58485 17.0549 7.59254L17.8049 7.60759C18.1884 7.61528 18.4994 7.93381 18.4995 8.32022L18.5 10.1798C18.5001 10.5656 18.1891 10.8847 17.8056 10.8924L17.0555 10.9074C16.6719 10.9151 16.2414 11.2102 16.0956 11.5622L15.7255 12.4556C15.5789 12.8095 15.6756 13.3207 15.9413 13.5973L16.4611 14.1384C16.7269 14.4151 16.7215 14.8601 16.4482 15.1333L15.1329 16.4479C14.86 16.7206 14.4144 16.7263 14.1379 16.4606L13.5969 15.9409C13.3202 15.6751 12.8072 15.5793 12.4553 15.725L11.5621 16.095C11.2082 16.2416 10.9151 16.6714 10.9075 17.0549L10.8924 17.8049C10.8847 18.1884 10.5662 18.4994 10.1798 18.4995L8.32023 18.5C7.93435 18.5001 7.6153 18.1891 7.6076 17.8056L7.59256 17.0555C7.58486 16.6719 7.2898 16.2414 6.93781 16.0956L6.04442 15.7255C5.69051 15.5789 5.17925 15.6756 4.90265 15.9413L4.36159 16.4611ZM7.51977 13.4271C9.82674 14.3827 12.4716 13.2872 13.4271 10.9802C14.3827 8.67325 13.2872 6.02843 10.9802 5.07285C8.67325 4.11727 6.02843 5.21279 5.07285 7.51977C4.11727 9.82674 5.21279 12.4716 7.51977 13.4271Z" fill="#111111"/>
</svg>
