<svg width="50" height="51" viewBox="0 0 50 51" fill="white" xmlns="http://www.w3.org/2000/svg">
<g clip-path="url(#clip0)">
<path d="M49.9999 11.9949V14.188C49.9999 15.0636 49.3508 15.8213 48.4915 15.9505C48.1042 16.0078 47.7082 16.0652 47.3086 16.118C47.1072 16.7913 46.8375 17.4433 46.5063 18.0627C46.7502 18.3831 46.9919 18.7056 47.2248 19.0215C47.7417 19.7241 47.6667 20.72 47.0513 21.3394L45.5071 22.8895C44.8917 23.5089 43.8991 23.5842 43.1997 23.0637C42.8841 22.83 42.564 22.5871 42.2452 22.3432C41.6286 22.676 40.9795 22.9468 40.3104 23.148C40.2567 23.5504 40.2007 23.9484 40.1425 24.3362C40.0138 25.2006 39.2596 25.8514 38.389 25.8514H36.2058C35.3341 25.8514 34.5798 25.2005 34.4512 24.3362C34.3942 23.9484 34.3371 23.5493 34.2845 23.148C33.6142 22.9468 32.9652 22.6759 32.3486 22.3432C32.0296 22.5872 31.7096 22.83 31.3941 23.0637C30.6947 23.5842 29.7033 23.5089 29.0867 22.8895L27.5435 21.3394C26.9269 20.72 26.8519 19.7241 27.3689 19.0215C27.6028 18.7056 27.8434 18.383 28.0874 18.0627C27.7561 17.4433 27.4876 16.7913 27.2862 16.118C26.8856 16.0651 26.4894 16.0078 26.1034 15.9505C25.2428 15.8212 24.595 15.0636 24.595 14.188V11.9949C24.595 11.1203 25.2429 10.3627 26.1034 10.2334C26.4894 10.1749 26.8867 10.1187 27.2862 10.0648C27.4876 9.39259 27.7562 8.74063 28.0874 8.12123C27.8434 7.79976 27.6028 7.47829 27.3701 7.16241C26.852 6.45983 26.9269 5.46275 27.5435 4.84453L29.0867 3.2933C29.7033 2.67508 30.6947 2.59974 31.3941 3.11907C31.7096 3.35402 32.0297 3.59573 32.3486 3.84079C32.9652 3.50803 33.6142 3.23718 34.2845 3.03481C34.3372 2.63348 34.3942 2.23559 34.4512 1.84663C34.5797 0.983264 35.3339 0.331299 36.2057 0.331299H38.3889C39.2595 0.331299 40.0137 0.983264 40.1424 1.84653C40.2006 2.2355 40.2566 2.63338 40.3103 3.03471C40.9794 3.23709 41.6285 3.50794 42.2451 3.84069C42.564 3.59564 42.884 3.35392 43.2007 3.11897C43.899 2.59964 44.8916 2.67498 45.5071 3.2932L47.0513 4.84444C47.6667 5.46265 47.7417 6.45973 47.2248 7.16114C46.992 7.4781 46.7502 7.79966 46.5063 8.12113C46.8375 8.74053 47.1072 9.39249 47.3086 10.0647C47.7082 10.1186 48.1042 10.1748 48.4915 10.2333C49.3508 10.3627 49.9999 11.1203 49.9999 11.9949ZM47.8737 13.8834V12.3006C47.5223 12.25 47.1642 12.2006 46.805 12.1534C46.0956 12.0601 45.5137 11.5531 45.3246 10.8629C45.1433 10.2019 44.8803 9.56456 44.5423 8.96655C44.1899 8.34382 44.2447 7.57266 44.6811 7.00163C44.9015 6.71391 45.1198 6.425 45.3324 6.13836L44.219 5.01993C43.9326 5.23467 43.645 5.45382 43.3596 5.67416C42.7912 6.11256 42.0235 6.16759 41.4036 5.81355C40.8083 5.47403 40.1738 5.20995 39.5158 5.02778C38.8276 4.83776 38.324 4.25329 38.2311 3.53952C38.1841 3.1798 38.1349 2.82007 38.0845 2.46711H36.5089C36.4585 2.82007 36.4093 3.1798 36.3624 3.5406C36.2695 4.25329 35.7659 4.83776 35.0777 5.02778C34.4197 5.20985 33.7852 5.47403 33.1911 5.81355C32.57 6.16769 31.8024 6.11256 31.2339 5.67416C30.9486 5.45382 30.661 5.23467 30.3746 5.01993L29.2612 6.13836C29.4738 6.425 29.692 6.71391 29.9124 7.00163C30.35 7.57266 30.4037 8.34382 30.0512 8.96655C29.7132 9.56456 29.4503 10.2019 29.269 10.8629C29.0798 11.5531 28.4991 12.0601 27.7885 12.1534C27.4293 12.2006 27.0712 12.25 26.7209 12.3006V13.8834C27.0712 13.934 27.4292 13.9834 27.7885 14.0306C28.4991 14.1239 29.0798 14.6298 29.269 15.3211C29.4502 15.9821 29.7132 16.6194 30.0512 17.2163C30.4037 17.8402 30.35 18.6112 29.9136 19.1812C29.692 19.4689 29.4739 19.759 29.2613 20.0445L30.3747 21.1641C30.6611 20.9493 30.9487 20.7302 31.2352 20.5098C31.8026 20.0704 32.5702 20.0164 33.1913 20.3704C33.7855 20.71 34.421 20.974 35.0779 21.1562C35.7661 21.3462 36.2697 21.9307 36.3625 22.6434C36.4095 23.0042 36.4587 23.3639 36.5091 23.7158H38.0847C38.1351 23.3639 38.1843 23.0043 38.2313 22.6434C38.3242 21.9307 38.8277 21.3462 39.516 21.1562C40.174 20.9741 40.8084 20.71 41.4026 20.3704C42.0237 20.0164 42.7913 20.0704 43.3597 20.5098C43.6451 20.7302 43.9337 20.9493 44.2191 21.1641L45.3325 20.0445C45.1199 19.7589 44.9016 19.4689 44.6812 19.1812C44.2448 18.6112 44.19 17.8402 44.5424 17.2163C44.8804 16.6193 45.1433 15.982 45.3247 15.3211C45.5138 14.6298 46.0957 14.1239 46.8051 14.0306C47.1642 13.9834 47.5223 13.9339 47.8737 13.8834Z" />
<path d="M47.8737 12.3006V13.8833C47.5223 13.9339 47.1642 13.9834 46.805 14.0305C46.0955 14.1238 45.5137 14.6297 45.3245 15.321C45.1433 15.982 44.8803 16.6194 44.5423 17.2162C44.1899 17.8401 44.2447 18.6112 44.6811 19.1811C44.9015 19.4688 45.1197 19.7589 45.3323 20.0444L44.219 21.164C43.9336 20.9493 43.6449 20.7301 43.3596 20.5098C42.7911 20.0703 42.0235 20.0163 41.4025 20.3704C40.8082 20.7099 40.1738 20.974 39.5158 21.1562C38.8277 21.3462 38.324 21.9306 38.2312 22.6433C38.1842 23.0041 38.135 23.3639 38.0846 23.7157H36.509C36.4586 23.3639 36.4094 23.0042 36.3624 22.6433C36.2696 21.9306 35.7659 21.3462 35.0778 21.1562C34.4209 20.9741 33.7853 20.7099 33.1911 20.3704C32.57 20.0163 31.8025 20.0703 31.2351 20.5098C30.9487 20.7301 30.6611 20.9493 30.3745 21.164L29.2612 20.0444C29.4738 19.7588 29.692 19.4688 29.9135 19.1811C30.3499 18.6112 30.4036 17.8401 30.0511 17.2162C29.7131 16.6193 29.4502 15.9819 29.2689 15.321C29.0797 14.6297 28.4989 14.1238 27.7884 14.0305C27.4292 13.9834 27.0711 13.9339 26.7208 13.8833V12.3006C27.0711 12.25 27.4291 12.2005 27.7884 12.1533C28.4989 12.06 29.0797 11.5531 29.2689 10.8628C29.4501 10.2018 29.7131 9.56449 30.0511 8.96648C30.4035 8.34375 30.3499 7.5726 29.9123 7.00156C29.6919 6.71384 29.4737 6.42494 29.2611 6.13829L30.3744 5.01987C30.6609 5.23461 30.9485 5.45376 31.2338 5.67409C31.8023 6.11249 32.5699 6.16753 33.1909 5.81349C33.7852 5.47397 34.4197 5.20989 35.0776 5.02772C35.7657 4.8377 36.2694 4.25323 36.3622 3.54054C36.4092 3.17973 36.4584 2.82 36.5088 2.46704H38.0844C38.1348 2.82 38.184 3.17973 38.231 3.53946C38.3238 4.25323 38.8275 4.8378 39.5156 5.02772C40.1737 5.20979 40.8081 5.47397 41.4034 5.81349C42.0234 6.16762 42.791 6.11249 43.3595 5.67409C43.6448 5.45376 43.9324 5.23461 44.2189 5.01987L45.3322 6.13829C45.1197 6.42494 44.9014 6.71384 44.681 7.00156C44.2446 7.5726 44.1898 8.34375 44.5422 8.96648C44.8802 9.56449 45.1431 10.2018 45.3244 10.8628C45.5136 11.5531 46.0954 12.06 46.8049 12.1533C47.1642 12.2005 47.5223 12.25 47.8737 12.3006ZM41.8276 13.0919C41.8276 10.5819 39.7954 8.54054 37.2967 8.54054C34.798 8.54054 32.7658 10.5819 32.7658 13.0919C32.7658 15.602 34.798 17.6433 37.2967 17.6433C39.7954 17.6433 41.8276 15.602 41.8276 13.0919Z" />
<path d="M32.9671 28.7281C33.361 29.6836 32.994 30.8055 32.1133 31.3371C31.5896 31.653 31.0503 31.9722 30.5087 32.2859C30.6351 33.3695 30.6351 34.4689 30.5087 35.5547C31.048 35.8673 31.5874 36.1865 32.1133 36.5034C32.994 37.0351 33.3611 38.157 32.9671 39.1125L31.8179 41.9002C31.4229 42.8568 30.3744 43.3897 29.3762 43.1401C28.7832 42.9917 28.1778 42.8333 27.5735 42.6714C26.8999 43.5291 26.1266 44.3058 25.2739 44.9825C25.4362 45.5929 25.5939 46.201 25.7405 46.7923C25.9889 47.795 25.4585 48.8483 24.5073 49.244L21.7321 50.3996C20.7798 50.7953 19.663 50.4266 19.1337 49.5419C18.8171 49.0125 18.4993 48.4707 18.1893 47.93C17.1094 48.057 16.0162 48.057 14.9352 47.93C14.6219 48.4763 14.3041 49.0193 13.9908 49.5419C13.6047 50.1871 12.9064 50.5582 12.188 50.5582C11.9206 50.5582 11.6509 50.5065 11.3935 50.3996L8.61725 49.244C7.66607 48.8484 7.1357 47.7951 7.38404 46.7923C7.5318 46.1977 7.68844 45.5885 7.85064 44.9814C6.99684 44.3047 6.22359 43.528 5.54996 42.6714C4.94566 42.8344 4.34029 42.9918 3.7483 43.1401C2.75016 43.3897 1.70162 42.8568 1.30768 41.9013L0.157285 39.1135C-0.236563 38.157 0.13043 37.0351 1.01109 36.5034C1.53482 36.1865 2.07418 35.8683 2.61578 35.5547C2.48932 34.4699 2.48932 33.3717 2.61578 32.2859C2.07525 31.9733 1.5359 31.6541 1.01109 31.3371C0.13043 30.8055 -0.23666 29.6836 0.157285 28.7281L1.3065 25.9403C1.70152 24.9838 2.75006 24.4509 3.74713 24.7005C4.33912 24.8489 4.94557 25.0062 5.55104 25.1692C6.22467 24.3115 6.99791 23.5348 7.85064 22.8581C7.68951 22.2533 7.53287 21.6452 7.38404 21.0482C7.13561 20.0456 7.66607 18.9923 8.61725 18.5966L11.3924 17.441C12.3447 17.0453 13.4615 17.414 13.9908 18.2986C14.3052 18.8236 14.623 19.3654 14.9352 19.9106C16.0151 19.7836 17.1084 19.7836 18.1893 19.9106C18.5004 19.3676 18.8182 18.8258 19.1337 18.2986C19.663 17.414 20.7798 17.0452 21.7321 17.441L24.5073 18.5966C25.4585 18.9922 25.9888 20.0455 25.7405 21.0482C25.5927 21.644 25.435 22.2521 25.2739 22.8592C26.1277 23.5358 26.9009 24.3126 27.5746 25.1692C28.1777 25.0061 28.7842 24.8488 29.3762 24.7005C30.3744 24.4509 31.4229 24.9838 31.8169 25.9393L32.9672 28.727C32.9671 28.7281 32.9671 28.7281 32.9671 28.7281ZM30.8522 29.4756L29.7959 26.9127C29.2274 27.0566 28.6466 27.2072 28.0681 27.3645C27.2502 27.5849 26.3874 27.297 25.8704 26.6283C25.2751 25.8617 24.5869 25.1704 23.8214 24.5724C23.1567 24.0519 22.868 23.1841 23.0885 22.3636C23.2441 21.7824 23.3952 21.199 23.5383 20.6268L20.987 19.5657C20.6848 20.0715 20.3804 20.592 20.0828 21.1124C19.6598 21.8498 18.8474 22.259 18.0092 22.1533C17.0468 22.0331 16.0733 22.0331 15.1132 22.1533C14.2785 22.2579 13.4638 21.8487 13.042 21.1113C12.7421 20.5897 12.4388 20.0704 12.1378 19.5657L9.58639 20.6268C9.72965 21.2001 9.88072 21.7835 10.0362 22.3624C10.2555 23.1841 9.969 24.0508 9.30436 24.5701C8.5401 25.1681 7.85191 25.8594 7.2565 26.6283C6.73844 27.296 5.87447 27.586 5.05768 27.3645C4.47799 27.2072 3.89723 27.0554 3.32877 26.9127L2.27242 29.4756C2.77711 29.7791 3.2941 30.0849 3.81217 30.3839C4.54625 30.8088 4.95357 31.6261 4.8484 32.4669C4.72867 33.4324 4.72867 34.4116 4.8484 35.376C4.9525 36.2157 4.54518 37.0329 3.81109 37.4567C3.29303 37.7568 2.77604 38.0614 2.27242 38.365L3.32877 40.9279C3.89723 40.7852 4.47799 40.6334 5.0565 40.476C5.87447 40.2557 6.73727 40.5435 7.25426 41.2123C7.84957 41.9789 8.53775 42.6702 9.30318 43.2682C9.96793 43.7886 10.2554 44.6565 10.0361 45.477C9.87945 46.0593 9.72838 46.6427 9.58629 47.2138L12.1377 48.2749C12.4376 47.7724 12.7408 47.252 13.0419 46.7282C13.4648 45.9908 14.2772 45.5828 15.1154 45.6872C16.0766 45.8075 17.0513 45.8075 18.0114 45.6872C18.8473 45.5839 19.6608 45.9918 20.0827 46.7293C20.3803 47.2474 20.6836 47.7667 20.9869 48.2749L23.5382 47.2138C23.3962 46.645 23.2451 46.0627 23.0884 45.4782C22.8691 44.6565 23.1556 43.7898 23.8203 43.2705C24.5835 42.6725 25.2727 41.9812 25.8681 41.2123C26.3862 40.5445 27.249 40.2557 28.067 40.476C28.6455 40.6323 29.2262 40.7841 29.7959 40.9279L30.8522 38.365C30.3475 38.0614 29.8295 37.7557 29.3125 37.4567C28.5784 37.0318 28.1722 36.2145 28.2762 35.3737C28.396 34.4081 28.396 33.429 28.2762 32.4646C28.1721 31.6249 28.5795 30.8077 29.3135 30.3839C29.8316 30.0837 30.3498 29.778 30.8522 29.4756Z" />
<path d="M29.796 26.9127L30.8524 29.4756C30.35 29.778 29.8319 30.0837 29.3137 30.3839C28.5796 30.8077 28.1723 31.6249 28.2764 32.4646C28.3961 33.4291 28.3961 34.4081 28.2764 35.3737C28.1723 36.2145 28.5786 37.0318 29.3126 37.4566C29.8296 37.7557 30.3477 38.0614 30.8524 38.3649L29.796 40.9279C29.2264 40.784 28.6457 40.6322 28.0671 40.476C27.2492 40.2557 26.3864 40.5446 25.8683 41.2123C25.273 41.9812 24.5836 42.6725 23.8205 43.2705C23.1557 43.7898 22.8693 44.6565 23.0886 45.4782C23.2453 46.0628 23.3963 46.645 23.5384 47.2138L20.9871 48.2749C20.6838 47.7668 20.3805 47.2475 20.0829 46.7292C19.661 45.9918 18.8475 45.5838 18.0116 45.6872C17.0514 45.8075 16.0768 45.8075 15.1156 45.6872C14.2774 45.5827 13.465 45.9908 13.042 46.7282C12.7411 47.252 12.4377 47.7724 12.1378 48.2749L9.58657 47.2138C9.72866 46.6427 9.87974 46.0593 10.0364 45.477C10.2557 44.6564 9.96811 43.7886 9.30347 43.2682C8.53804 42.6702 7.84985 41.9789 7.25454 41.2123C6.73755 40.5434 5.87476 40.2557 5.05679 40.476C4.47827 40.6334 3.89751 40.7851 3.32905 40.9279L2.27271 38.3649C2.77622 38.0614 3.29321 37.7568 3.81138 37.4566C4.54546 37.0329 4.95278 36.2157 4.84868 35.376C4.72896 34.4115 4.72896 33.4324 4.84868 32.4669C4.95386 31.626 4.54653 30.8088 3.81245 30.3839C3.29438 30.0849 2.77739 29.7791 2.27271 29.4756L3.32905 26.9127C3.89751 27.0554 4.47827 27.2072 5.05796 27.3645C5.87485 27.5859 6.73872 27.296 7.25679 26.6283C7.8521 25.8594 8.54028 25.1681 9.30464 24.5701C9.96929 24.0508 10.2558 23.1841 10.0365 22.3624C9.88091 21.7835 9.72983 21.2001 9.58667 20.6268L12.138 19.5657C12.439 20.0704 12.7423 20.5897 13.0422 21.1113C13.4641 21.8487 14.2788 22.2579 15.1135 22.1533C16.0737 22.0331 17.0472 22.0331 18.0095 22.1533C18.8477 22.259 19.6601 21.8498 20.0831 21.1124C20.3807 20.592 20.6851 20.0715 20.9873 19.5657L23.5386 20.6268C23.3954 21.1989 23.2443 21.7824 23.0888 22.3636C22.8684 23.1841 23.1571 24.0519 23.8217 24.5723C24.5872 25.1704 25.2753 25.8617 25.8707 26.6283C26.3876 27.2971 27.2504 27.5849 28.0684 27.3645C28.6468 27.2072 29.2276 27.0566 29.796 26.9127ZM24.1897 33.9113C24.1897 32.9356 24.0028 31.9441 23.6089 30.9886C21.9998 27.0847 17.5293 25.2243 13.6441 26.8419C9.75776 28.4583 7.90581 32.949 9.51606 36.8519C10.2949 38.7437 11.762 40.2163 13.6441 40.9986C14.5852 41.3909 15.5733 41.5865 16.5625 41.5865C17.5516 41.5865 18.5398 41.3909 19.4808 40.9986C22.415 39.778 24.1897 36.9183 24.1897 33.9113Z" />
</g>
<defs>
<clipPath id="clip0">
<rect width="50" height="50.2266" fill="white" transform="translate(0 0.331299)"/>
</clipPath>
</defs>
</svg>
