<svg width="55" height="55" viewBox="0 0 55 55" fill="none" xmlns="http://www.w3.org/2000/svg">
<path d="M48.125 20.625H46.2916C46.0547 19.5967 45.6522 18.6137 45.1 17.7145L46.3833 16.4312C46.7587 15.9928 46.9549 15.4289 46.9326 14.8521C46.9104 14.2754 46.6713 13.7283 46.2631 13.3201C45.855 12.912 45.3079 12.6729 44.7311 12.6506C44.1544 12.6283 43.5905 12.8245 43.1521 13.2L41.8687 14.4833C40.9696 13.931 39.9866 13.5286 38.9583 13.2916V11.4583C38.9583 10.8505 38.7169 10.2676 38.2871 9.83784C37.8573 9.40807 37.2744 9.16663 36.6666 9.16663C36.0589 9.16663 35.476 9.40807 35.0462 9.83784C34.6164 10.2676 34.375 10.8505 34.375 11.4583V13.2916C33.3527 13.5249 32.3767 13.9277 31.4875 14.4833L30.1812 13.2C29.7428 12.8245 29.1789 12.6283 28.6021 12.6506C28.0254 12.6729 27.4783 12.912 27.0701 13.3201C26.662 13.7283 26.4229 14.2754 26.4006 14.8521C26.3784 15.4289 26.5745 15.9928 26.95 16.4312L28.2333 17.7375C28.0271 18.0812 27.8666 18.4708 27.6833 18.8375C26.5051 18.5049 25.2868 18.3352 24.0625 18.3333C20.7599 18.3314 17.5669 19.5183 15.0674 21.677C12.5679 23.8356 10.9289 26.8218 10.45 30.0895C8.58501 30.6125 6.97227 31.7927 5.90965 33.4121C4.84703 35.0315 4.4063 36.9808 4.66888 38.8998C4.93146 40.8188 5.87959 42.578 7.33817 43.8525C8.79675 45.1269 10.6672 45.8305 12.6041 45.8333H33.6187C36.2505 45.8333 38.7744 44.7878 40.6353 42.9269C42.4962 41.066 43.5416 38.5421 43.5416 35.9104C43.5396 34.6935 43.3063 33.4881 42.8541 32.3583L43.1521 32.6333C43.5789 33.0567 44.155 33.2953 44.7562 33.2979C45.0578 33.2996 45.3568 33.2418 45.636 33.1278C45.9152 33.0137 46.1692 32.8457 46.3833 32.6333C46.8101 32.2039 47.0497 31.6231 47.0497 31.0177C47.0497 30.4122 46.8101 29.8314 46.3833 29.402L45.1 28.1187C45.6522 27.2195 46.0547 26.2366 46.2916 25.2083H48.125C48.7328 25.2083 49.3157 24.9668 49.7454 24.5371C50.1752 24.1073 50.4166 23.5244 50.4166 22.9166C50.4166 22.3088 50.1752 21.7259 49.7454 21.2962C49.3157 20.8664 48.7328 20.625 48.125 20.625ZM33.6187 41.25H12.6041C11.6925 41.25 10.8181 40.8878 10.1735 40.2431C9.52881 39.5985 9.16665 38.7241 9.16665 37.8125C9.16665 36.9008 9.52881 36.0264 10.1735 35.3818C10.8181 34.7371 11.6925 34.375 12.6041 34.375C13.2119 34.375 13.7948 34.1335 14.2246 33.7037C14.6544 33.274 14.8958 32.6911 14.8958 32.0833C14.9056 29.9193 15.6808 27.8285 17.084 26.181C18.4872 24.5336 20.428 23.4357 22.5629 23.0817C24.6978 22.7277 26.8891 23.1405 28.749 24.2469C30.6088 25.3533 32.0172 27.082 32.725 29.127C32.856 29.5208 33.0914 29.8717 33.4063 30.1421C33.7211 30.4125 34.1034 30.5924 34.5125 30.6625C35.8132 30.9057 36.9773 31.6232 37.7791 32.6759C38.5808 33.7287 38.9631 35.0416 38.8518 36.3602C38.7405 37.6788 38.1435 38.9091 37.1766 39.8126C36.2098 40.716 34.9418 41.2283 33.6187 41.25ZM40.4937 26.6979C40.0897 27.078 39.625 27.3878 39.1187 27.6145C38.3566 27.1183 37.5321 26.7253 36.6666 26.4458C35.6137 24.1467 33.9588 22.1751 31.8771 20.7395C32.1274 20.1517 32.4849 19.6155 32.9312 19.1583C33.9566 18.208 35.303 17.68 36.701 17.68C38.099 17.68 39.4455 18.208 40.4708 19.1583C41.4536 20.1717 42.0033 21.5279 42.0033 22.9395C42.0033 24.3512 41.4536 25.7074 40.4708 26.7208L40.4937 26.6979Z" fill="#32A674"/>
</svg>
